<svg width="1200" height="507" viewBox="0 0 1200 507" fill="none" xmlns="http://www.w3.org/2000/svg">
<g clip-path="url(#clip0_1_4)">
<path d="M41.0379 31.91H105.818L234.558 213.54V31.91H291.548V298H226.768L98.0279 113.5V298H41.0379V31.91ZM469.068 302.1C454.308 302.1 440.642 301.143 428.068 299.23C415.768 297.317 402.922 294.037 389.528 289.39C375.042 284.47 363.698 276.543 355.498 265.61C347.298 254.403 343.198 240.873 343.198 225.02V108.58C343.198 95.46 346.068 83.7066 351.808 73.32C357.822 62.9333 365.475 54.7333 374.768 48.72C382.968 43.5267 393.082 39.1533 405.108 35.6C417.135 32.0466 428.342 29.86 438.728 29.04C448.295 28.22 458.408 27.81 469.068 27.81C481.642 27.81 492.575 28.3567 501.868 29.45C511.162 30.27 521.548 32.1833 533.028 35.19C546.148 39.0167 556.945 43.6633 565.418 49.13C573.892 54.5967 580.998 62.25 586.738 72.09C592.752 82.2033 595.758 94.3667 595.758 108.58V225.02C595.758 239.78 591.795 252.49 583.868 263.15C576.215 273.81 565.555 281.873 551.888 287.34C527.288 297.18 499.682 302.1 469.068 302.1ZM469.888 256.59C478.908 256.59 486.425 256.317 492.438 255.77C498.725 254.95 505.148 253.583 511.708 251.67C518.268 249.757 523.188 246.613 526.468 242.24C530.022 237.593 531.798 231.853 531.798 225.02V108.17C531.798 95.5967 526.742 86.7133 516.628 81.52C506.515 76.0533 490.798 73.32 469.478 73.32C448.158 73.32 432.442 75.9167 422.328 81.11C412.215 86.3033 407.158 95.3233 407.158 108.17V225.02C407.158 231.853 408.935 237.593 412.488 242.24C416.042 246.613 421.235 249.757 428.068 251.67C434.628 253.583 440.915 254.95 446.928 255.77C453.215 256.317 460.868 256.59 469.888 256.59ZM618.529 31.91H683.309L754.649 244.7H756.289L827.629 31.91H890.769L792.369 298H714.059L618.529 31.91ZM990.015 31.91H1067.91L1163.85 298H1099.07L1075.29 227.89H978.125L954.755 298H891.615L990.015 31.91ZM1061.35 185.25L1027.73 85.21H1026.09L992.475 185.25H1061.35Z" fill="#BF0000"/>
<path d="M40.2342 443.653L53.1907 442.52C53.8043 447.712 55.2204 451.984 57.4388 455.335C59.7044 458.639 63.1972 461.329 67.9173 463.406C72.6373 465.436 77.9474 466.451 83.8475 466.451C89.0867 466.451 93.7124 465.672 97.7244 464.114C101.736 462.557 104.71 460.433 106.645 457.742C108.628 455.005 109.619 452.031 109.619 448.821C109.619 445.564 108.675 442.732 106.787 440.325C104.899 437.871 101.784 435.818 97.4412 434.166C94.6564 433.08 88.4967 431.404 78.9622 429.139C69.4277 426.826 62.7488 424.655 58.9256 422.625C53.9695 420.029 50.2643 416.819 47.8099 412.996C45.4026 409.126 44.199 404.807 44.199 400.04C44.199 394.8 45.6859 389.915 48.6595 385.384C51.6331 380.805 55.9756 377.336 61.6868 374.976C67.3981 372.616 73.7466 371.436 80.7322 371.436C88.4259 371.436 95.1992 372.687 101.052 375.188C106.952 377.643 111.483 381.277 114.646 386.092C117.808 390.906 119.507 396.358 119.743 402.447L106.575 403.438C105.867 396.877 103.459 391.921 99.3528 388.57C95.2936 385.219 89.2755 383.543 81.2986 383.543C72.9914 383.543 66.9261 385.077 63.1028 388.145C59.3268 391.166 57.4388 394.824 57.4388 399.119C57.4388 402.848 58.784 405.916 61.4744 408.323C64.1177 410.73 71.0089 413.208 82.1483 415.757C93.3348 418.259 101.005 420.454 105.159 422.342C111.2 425.127 115.661 428.667 118.54 432.962C121.419 437.21 122.859 442.119 122.859 447.688C122.859 453.211 121.277 458.427 118.115 463.335C114.953 468.197 110.398 471.997 104.451 474.734C98.5504 477.425 91.8952 478.77 84.4847 478.77C75.0918 478.77 67.2093 477.401 60.8372 474.664C54.5123 471.926 49.5327 467.819 45.8983 462.344C42.311 456.822 40.423 450.591 40.2342 443.653ZM193.994 426.448C193.994 409.22 198.619 395.744 207.871 386.021C217.122 376.25 229.064 371.365 243.696 371.365C253.278 371.365 261.915 373.654 269.609 378.233C277.303 382.811 283.155 389.207 287.167 397.42C291.227 405.586 293.256 414.861 293.256 425.245C293.256 435.77 291.132 445.187 286.884 453.494C282.636 461.801 276.618 468.103 268.83 472.398C261.042 476.646 252.64 478.77 243.625 478.77C233.855 478.77 225.122 476.41 217.429 471.69C209.735 466.97 203.906 460.527 199.941 452.361C195.976 444.196 193.994 435.558 193.994 426.448ZM208.154 426.661C208.154 439.169 211.505 449.034 218.208 456.255C224.957 463.43 233.406 467.017 243.554 467.017C253.891 467.017 262.387 463.383 269.042 456.114C275.745 448.845 279.096 438.532 279.096 425.174C279.096 416.725 277.657 409.362 274.777 403.084C271.945 396.759 267.768 391.874 262.246 388.428C256.77 384.935 250.611 383.189 243.767 383.189C234.043 383.189 225.665 386.54 218.632 393.243C211.647 399.898 208.154 411.037 208.154 426.661ZM367.011 477V373.206H380.746V464.751H431.864V477H367.011ZM572.951 373.206H586.686V433.174C586.686 443.606 585.506 451.889 583.146 458.025C580.786 464.161 576.514 469.165 570.331 473.035C564.195 476.858 556.124 478.77 546.117 478.77C536.394 478.77 528.441 477.094 522.257 473.743C516.074 470.392 511.661 465.554 509.017 459.229C506.374 452.857 505.053 444.172 505.053 433.174V373.206H518.788V433.104C518.788 442.119 519.614 448.774 521.266 453.069C522.965 457.317 525.844 460.598 529.904 462.911C534.01 465.223 539.013 466.38 544.913 466.38C555.014 466.38 562.212 464.091 566.508 459.512C570.803 454.934 572.951 446.131 572.951 433.104V373.206ZM692.584 477V385.455H658.387V373.206H740.658V385.455H706.319V477H692.584ZM813.704 477V373.206H827.44V477H813.704ZM904.097 426.448C904.097 409.22 908.723 395.744 917.974 386.021C927.225 376.25 939.167 371.365 953.799 371.365C963.381 371.365 972.019 373.654 979.712 378.233C987.406 382.811 993.259 389.207 997.271 397.42C1001.33 405.586 1003.36 414.861 1003.36 425.245C1003.36 435.77 1001.24 445.187 996.988 453.494C992.74 461.801 986.722 468.103 978.934 472.398C971.146 476.646 962.744 478.77 953.729 478.77C943.958 478.77 935.226 476.41 927.532 471.69C919.839 466.97 914.009 460.527 910.044 452.361C906.08 444.196 904.097 435.558 904.097 426.448ZM918.257 426.661C918.257 439.169 921.609 449.034 928.311 456.255C935.061 463.43 943.51 467.017 953.658 467.017C963.995 467.017 972.491 463.383 979.146 456.114C985.848 448.845 989.2 438.532 989.2 425.174C989.2 416.725 987.76 409.362 984.881 403.084C982.049 396.759 977.872 391.874 972.349 388.428C966.874 384.935 960.714 383.189 953.87 383.189C944.147 383.189 935.769 386.54 928.736 393.243C921.75 399.898 918.257 411.037 918.257 426.661ZM1077.54 477V373.206H1091.63L1146.15 454.698V373.206H1159.31V477H1145.22L1090.71 395.438V477H1077.54Z" fill="#BF0000"/>
</g>
<defs>
<clipPath id="clip0_1_4">
<rect width="1200" height="507" fill="white"/>
</clipPath>
</defs>
</svg>
