<svg width="1200" height="675" viewBox="0 0 1200 675" fill="none" xmlns="http://www.w3.org/2000/svg">
<g clip-path="url(#clip0_1_4)">
<path d="M145.507 149.34H199.227L305.987 299.96V149.34H353.247V370H299.527L192.767 217V370H145.507V149.34ZM500.459 373.4C488.219 373.4 476.886 372.607 466.459 371.02C456.259 369.433 445.606 366.713 434.499 362.86C422.486 358.78 413.079 352.207 406.279 343.14C399.479 333.847 396.079 322.627 396.079 309.48V212.92C396.079 202.04 398.459 192.293 403.219 183.68C408.206 175.067 414.552 168.267 422.259 163.28C429.059 158.973 437.446 155.347 447.419 152.4C457.392 149.453 466.686 147.64 475.299 146.96C483.232 146.28 491.619 145.94 500.459 145.94C510.886 145.94 519.952 146.393 527.659 147.3C535.366 147.98 543.979 149.567 553.499 152.06C564.379 155.233 573.332 159.087 580.359 163.62C587.386 168.153 593.279 174.5 598.039 182.66C603.026 191.047 605.519 201.133 605.519 212.92V309.48C605.519 321.72 602.232 332.26 595.659 341.1C589.312 349.94 580.472 356.627 569.139 361.16C548.739 369.32 525.846 373.4 500.459 373.4ZM501.139 335.66C508.619 335.66 514.852 335.433 519.839 334.98C525.052 334.3 530.379 333.167 535.819 331.58C541.259 329.993 545.339 327.387 548.059 323.76C551.006 319.907 552.479 315.147 552.479 309.48V212.58C552.479 202.153 548.286 194.787 539.899 190.48C531.512 185.947 518.479 183.68 500.799 183.68C483.119 183.68 470.086 185.833 461.699 190.14C453.312 194.447 449.119 201.927 449.119 212.58V309.48C449.119 315.147 450.592 319.907 453.539 323.76C456.486 327.387 460.792 329.993 466.459 331.58C471.899 333.167 477.112 334.3 482.099 334.98C487.312 335.433 493.659 335.66 501.139 335.66ZM624.402 149.34H678.122L737.282 325.8H738.642L797.802 149.34H850.162L768.562 370H703.622L624.402 149.34ZM932.464 149.34H997.064L1076.62 370H1022.9L1003.18 311.86H922.604L903.224 370H850.864L932.464 149.34ZM991.624 276.5L963.744 193.54H962.384L934.504 276.5H991.624Z" fill="black"/>
<path d="M134.177 495.402L144.899 494.465C145.407 498.762 146.579 502.297 148.415 505.07C150.29 507.805 153.18 510.031 157.087 511.75C160.993 513.43 165.388 514.27 170.27 514.27C174.606 514.27 178.434 513.625 181.755 512.336C185.075 511.047 187.536 509.289 189.138 507.062C190.778 504.797 191.598 502.336 191.598 499.68C191.598 496.984 190.817 494.641 189.255 492.648C187.692 490.617 185.114 488.918 181.52 487.551C179.216 486.652 174.118 485.266 166.227 483.391C158.337 481.477 152.809 479.68 149.645 478C145.544 475.852 142.477 473.195 140.446 470.031C138.454 466.828 137.458 463.254 137.458 459.309C137.458 454.973 138.688 450.93 141.149 447.18C143.61 443.391 147.204 440.52 151.93 438.566C156.657 436.613 161.911 435.637 167.692 435.637C174.059 435.637 179.665 436.672 184.509 438.742C189.391 440.773 193.141 443.781 195.759 447.766C198.376 451.75 199.782 456.262 199.977 461.301L189.079 462.121C188.493 456.691 186.501 452.59 183.102 449.816C179.743 447.043 174.763 445.656 168.161 445.656C161.286 445.656 156.266 446.926 153.102 449.465C149.977 451.965 148.415 454.992 148.415 458.547C148.415 461.633 149.528 464.172 151.755 466.164C153.942 468.156 159.645 470.207 168.864 472.316C178.122 474.387 184.47 476.203 187.907 477.766C192.907 480.07 196.598 483 198.981 486.555C201.364 490.07 202.555 494.133 202.555 498.742C202.555 503.312 201.247 507.629 198.63 511.691C196.013 515.715 192.243 518.859 187.321 521.125C182.438 523.352 176.93 524.465 170.798 524.465C163.024 524.465 156.501 523.332 151.227 521.066C145.993 518.801 141.872 515.402 138.864 510.871C135.895 506.301 134.333 501.145 134.177 495.402ZM261.426 481.164C261.426 466.906 265.254 455.754 272.91 447.707C280.566 439.621 290.449 435.578 302.559 435.578C310.488 435.578 317.637 437.473 324.004 441.262C330.371 445.051 335.215 450.344 338.535 457.141C341.895 463.898 343.574 471.574 343.574 480.168C343.574 488.879 341.816 496.672 338.301 503.547C334.785 510.422 329.805 515.637 323.359 519.191C316.914 522.707 309.961 524.465 302.5 524.465C294.414 524.465 287.188 522.512 280.82 518.605C274.453 514.699 269.629 509.367 266.348 502.609C263.066 495.852 261.426 488.703 261.426 481.164ZM273.145 481.34C273.145 491.691 275.918 499.855 281.465 505.832C287.051 511.77 294.043 514.738 302.441 514.738C310.996 514.738 318.027 511.73 323.535 505.715C329.082 499.699 331.855 491.164 331.855 480.109C331.855 473.117 330.664 467.023 328.281 461.828C325.938 456.594 322.48 452.551 317.91 449.699C313.379 446.809 308.281 445.363 302.617 445.363C294.57 445.363 287.637 448.137 281.816 453.684C276.035 459.191 273.145 468.41 273.145 481.34ZM404.613 523V437.102H415.98V512.863H458.284V523H404.613ZM575.045 437.102H586.413V486.73C586.413 495.363 585.436 502.219 583.483 507.297C581.53 512.375 577.995 516.516 572.877 519.719C567.799 522.883 561.12 524.465 552.838 524.465C544.791 524.465 538.209 523.078 533.092 520.305C527.975 517.531 524.323 513.527 522.135 508.293C519.948 503.02 518.854 495.832 518.854 486.73V437.102H530.221V486.672C530.221 494.133 530.905 499.641 532.272 503.195C533.678 506.711 536.061 509.426 539.42 511.34C542.819 513.254 546.959 514.211 551.842 514.211C560.202 514.211 566.159 512.316 569.713 508.527C573.268 504.738 575.045 497.453 575.045 486.672V437.102ZM674.052 523V447.238H645.752V437.102H713.838V447.238H685.42V523H674.052ZM774.29 523V437.102H785.657V523H774.29ZM849.098 481.164C849.098 466.906 852.926 455.754 860.582 447.707C868.238 439.621 878.121 435.578 890.23 435.578C898.16 435.578 905.309 437.473 911.676 441.262C918.043 445.051 922.887 450.344 926.207 457.141C929.566 463.898 931.246 471.574 931.246 480.168C931.246 488.879 929.488 496.672 925.973 503.547C922.457 510.422 917.477 515.637 911.031 519.191C904.586 522.707 897.633 524.465 890.172 524.465C882.086 524.465 874.859 522.512 868.492 518.605C862.125 514.699 857.301 509.367 854.02 502.609C850.738 495.852 849.098 488.703 849.098 481.164ZM860.816 481.34C860.816 491.691 863.59 499.855 869.137 505.832C874.723 511.77 881.715 514.738 890.113 514.738C898.668 514.738 905.699 511.73 911.207 505.715C916.754 499.699 919.527 491.164 919.527 480.109C919.527 473.117 918.336 467.023 915.953 461.828C913.609 456.594 910.152 452.551 905.582 449.699C901.051 446.809 895.953 445.363 890.289 445.363C882.242 445.363 875.309 448.137 869.488 453.684C863.707 459.191 860.816 468.41 860.816 481.34ZM992.636 523V437.102H1004.3L1049.41 504.543V437.102H1060.31V523H1048.65L1003.53 455.5V523H992.636Z" fill="black"/>
</g>
<defs>
<clipPath id="clip0_1_4">
<rect width="1200" height="675" fill="white"/>
</clipPath>
</defs>
</svg>
